<svg width="32" height="32" viewBox="0 0 32 32" fill="none" xmlns="http://www.w3.org/2000/svg">
<path d="M16.0002 26.2992C21.6887 26.2992 26.3002 21.6878 26.3002 15.9992C26.3002 10.3107 21.6887 5.69922 16.0002 5.69922C10.3117 5.69922 5.7002 10.3107 5.7002 15.9992C5.7002 21.6878 10.3117 26.2992 16.0002 26.2992Z" fill="#090A09"/>
<path d="M16 2C8.22222 2 2 8.22222 2 16C2 23.7778 8.22222 30 16 30C23.7778 30 30 23.7778 30 16C30 8.22222 23.7778 2 16 2ZM23.363 16.6222C23.2593 16.7259 23.1556 16.7259 23.0519 16.8296C22.9481 16.8296 22.8444 16.9333 22.637 16.9333C22.3259 17.037 22.0148 16.9333 21.7037 16.9333C21.0815 16.8296 20.3556 16.5185 19.7333 16.1037C19.1111 15.6889 18.4889 15.2741 17.9704 14.7556C17.6593 14.5481 17.4519 14.237 17.1407 13.9259C16.9333 13.6148 16.6222 13.4074 16.4148 13.0963C16.3111 12.9926 16.1037 12.9926 16 12.9926C15.8963 13.0963 15.7926 13.3037 15.8963 13.4074C16.1037 13.7185 16.3111 14.0296 16.5185 14.3407C16.7259 14.6519 17.037 14.963 17.2444 15.2741C17.763 15.8963 18.3852 16.4148 19.0074 16.9333C19.6296 17.4519 20.3556 17.8667 21.1852 18.0741C21.4963 18.1778 21.7037 18.1778 22.0148 18.1778C22.2222 18.1778 22.2222 18.3852 22.2222 18.4889C21.8074 19.2148 21.1852 19.9407 20.563 20.6667C19.6296 21.6 18.4889 22.4296 17.3481 22.9481C16.2074 23.4667 14.963 23.7778 13.8222 23.7778C12.8889 23.7778 11.9556 23.5704 11.0222 23.1556L10.8148 23.0519C10.7111 23.0519 10.7111 23.0519 10.6074 23.0519L10.7111 23.2593C10.4 23.4667 10.0889 23.5704 9.77778 23.5704C9.46667 23.5704 9.15556 23.4667 8.94815 23.2593C8.53333 22.8444 8.53333 22.2222 8.94815 21.6L9.05185 21.3926C9.05185 21.2889 9.05185 21.2889 9.05185 21.1852L8.94815 20.9778C7.91111 19.1111 8.01481 16.7259 9.05185 14.4444C9.15556 14.237 9.36296 14.237 9.46667 14.4444C9.67407 14.963 9.88148 15.3778 10.1926 15.7926C10.6074 16.5185 11.1259 17.037 11.7481 17.6593C12.0593 17.9704 12.3704 18.1778 12.5778 18.4889C12.8889 18.6963 13.2 19.0074 13.5111 19.2148C13.6148 19.3185 13.8222 19.3185 13.9259 19.1111C14.0296 19.0074 14.0296 18.8 13.9259 18.6963C13.6148 18.4889 13.4074 18.1778 13.0963 17.9704C12.8889 17.6593 12.5778 17.4519 12.3704 17.1407C11.8519 16.5185 11.437 16 11.1259 15.2741C10.8148 14.6519 10.5037 13.9259 10.4 13.3037C10.4 12.9926 10.4 12.6815 10.4 12.3704C10.4 12.2667 10.5037 12.163 10.5037 12.0593C10.5037 12.0593 10.5037 11.9556 10.6074 11.9556C10.8148 11.7481 11.0222 11.437 11.2296 11.2296C14.1333 8.32593 18.0741 7.39259 20.8741 8.94815L21.0815 9.05185C21.1852 9.05185 21.1852 9.05185 21.2889 9.05185L21.4963 8.94815C22.1185 8.53333 22.8444 8.53333 23.2593 8.94815C23.6741 9.36296 23.6741 10.1926 23.1556 10.8148L23.0519 11.0222C23.0519 11.1259 23.0519 11.1259 23.0519 11.2296L23.1556 11.437C23.5704 12.2667 23.7778 13.2 23.7778 14.1333C23.7778 14.8593 23.6741 15.7926 23.363 16.6222Z" fill="#0DEA68"/>
</svg>
